<?xml version="1.0" encoding="iso-8859-1"?>
<!-- Generator: Adobe Illustrator 19.1.1, SVG Export Plug-In . SVG Version: 6.00 Build 0)  -->
<svg version="1.1" id="Layer_1" xmlns="http://www.w3.org/2000/svg" xmlns:xlink="http://www.w3.org/1999/xlink" x="0px" y="0px"
	 viewBox="0 0 48 48" style="enable-background:new 0 0 48 48;" xml:space="preserve">
<rect x="16" y="15" style="fill:#BF360C;" width="16" height="18"/>
<rect x="16" y="15" style="fill:#BF360C;" width="16" height="18"/>
<rect x="16" y="15" style="fill:#4E342E;" width="16" height="18"/>
<path style="fill:#FF9800;" d="M24,37c-2.193,0-5-6-5-6v-6h10v6C29,31,26.192,37,24,37"/>
<path style="fill:#FFB74D;" d="M33,14c0-7.635-18-4.971-18,0v7c0,4.971,4.028,9,9,9c4.971,0,9-4.029,9-9V14z"/>
<path style="fill:#795548;" d="M24,4C17.925,4,9,7.404,9,27.286L16,32V19l12-7l4,5v15l7-6c0-4.025-0.674-20-11-20l-1-2H24z"/>
<path style="fill:#FFB74D;" d="M24,38c-4.42,0-5-7-5-7s2.507,4,5,4s5-4,5-4S28.42,38,24,38"/>
<path style="fill:#784719;" d="M27,21c0,0.551,0.448,1,1,1s1-0.449,1-1s-0.448-1-1-1S27,20.449,27,21"/>
<path style="fill:#784719;" d="M19,21c0,0.551,0.448,1,1,1s1-0.449,1-1s-0.448-1-1-1S19,20.449,19,21"/>
<path style="fill:#FF9800;" d="M24,37c-2.193,0-5-6-5-6v-6h10v6C29,31,26.192,37,24,37"/>
<path style="fill:#FFB74D;" d="M33,14c0-7.635-18-4.971-18,0v7c0,4.971,4.028,9,9,9c4.971,0,9-4.029,9-9V14z"/>
<path style="fill:#795548;" d="M24,4C17.925,4,9,7.404,9,27.286L16,32V19l12-7l4,5v15l7-6c0-4.025-0.674-20-11-20l-1-2H24z"/>
<path style="fill:#FFB74D;" d="M24,38c-4.42,0-5-7-5-7s2.507,4,5,4s5-4,5-4S28.42,38,24,38"/>
<path style="fill:#784719;" d="M27,21c0,0.551,0.448,1,1,1s1-0.449,1-1s-0.448-1-1-1S27,20.449,27,21"/>
<path style="fill:#784719;" d="M19,21c0,0.551,0.448,1,1,1s1-0.449,1-1s-0.448-1-1-1S19,20.449,19,21"/>
<path style="fill:#4FC3F7;" d="M29,31L29,31c0,0-1,4-5,4s-5-4-5-4S8,32.986,8,44h32C40,33.025,29,31,29,31"/>
<path style="fill:#FF9800;" d="M24,37c-2.193,0-5-6-5-6v-6h10v6C29,31,26.192,37,24,37"/>
<path style="fill:#FFB74D;" d="M33,14c0-7.635-18-4.971-18,0v7c0,4.971,4.028,9,9,9c4.971,0,9-4.029,9-9V14z"/>
<path style="fill:#795548;" d="M24,4C17.925,4,9,7.404,9,27.286L16,32V19l12-7l4,5v15l7-6c0-4.025-0.674-20-11-20l-1-2H24z"/>
<path style="fill:#FFB74D;" d="M24,38c-4.42,0-5-7-5-7s2.507,4,5,4s5-4,5-4S28.42,38,24,38"/>
<path style="fill:#01579B;" d="M24,40c4.746,0,6.571-5.115,6.949-8.428C29.793,31.148,29,31,29,31s-0.58,7-5,7c-4.42,0-5-7-5-7
	s-0.794,0.145-1.95,0.566C17.427,34.878,19.251,40,24,40z"/>
<path style="fill:#784719;" d="M27,21c0-0.551,0.448-1,1-1s1,0.449,1,1s-0.448,1-1,1S27,21.551,27,21 M19,21c0,0.551,0.448,1,1,1
	s1-0.449,1-1s-0.448-1-1-1S19,20.449,19,21"/>
</svg>
