<?xml version="1.0" encoding="iso-8859-1"?>
<!-- Generator: Adobe Illustrator 19.1.1, SVG Export Plug-In . SVG Version: 6.00 Build 0)  -->
<svg version="1.1" id="Layer_1" xmlns="http://www.w3.org/2000/svg" xmlns:xlink="http://www.w3.org/1999/xlink" x="0px" y="0px"
	 viewBox="0 0 48 48" style="enable-background:new 0 0 48 48;" xml:space="preserve">
<path style="fill:#4FC3F7;" d="M29,31L29,31c0,0-1,4-5,4s-5-4-5-4S8,32.986,8,44h32C40,33.025,29,31,29,31"/>
<path style="fill:#FF9800;" d="M24,37c-5,0-5-6-5-6v-6h10v6C29,31,29,37,24,37z"/>
<path style="fill:#FFA726;" d="M35,19c0,1.106-0.896,2-2,2c-1.105,0-2-0.894-2-2c0-1.105,0.895-2,2-2C34.104,17,35,17.895,35,19
	 M17,19c0-1.105-0.896-2-2-2c-1.106,0-2,0.895-2,2c0,1.106,0.894,2,2,2C16.104,21,17,20.106,17,19"/>
<path style="fill:#FFB74D;" d="M33,13c0-7.635-18-4.971-18,0v7c0,4.971,4.028,9,9,9c4.971,0,9-4.029,9-9V13z"/>
<path style="fill:#424242;" d="M24,4c-6.075,0-10,4.926-10,11v2.286L16,19v-5l12-4l4,4v5l2-1.742V15c0-4.025-1.038-8.016-6-9l-1-2
	H24z"/>
<path style="fill:#784719;" d="M27,19c0-0.551,0.448-1,1-1s1,0.449,1,1c0,0.551-0.448,1-1,1S27,19.551,27,19 M19,19
	c0,0.551,0.448,1,1,1s1-0.449,1-1c0-0.551-0.448-1-1-1S19,18.449,19,19"/>
<path style="fill:#01579B;" d="M24,37c5,0,6.745-3.93,6.95-5.428C29.794,31.148,29,31,29,31s-1,4-5,4s-5-4-5-4
	s-0.795,0.145-1.952,0.566C17.252,33.061,19,37,24,37z"/>
</svg>
