<?xml version="1.0" encoding="utf-8"?>
<!-- Generator: Adobe Illustrator 23.1.0, SVG Export Plug-In . SVG Version: 6.00 Build 0)  -->
<svg version="1.1" id="Capa_1" xmlns="http://www.w3.org/2000/svg" xmlns:xlink="http://www.w3.org/1999/xlink" x="0px" y="0px"
	 viewBox="0 0 1200 1200" enable-background="new 0 0 1200 1200" xml:space="preserve">
<g>
	<path fill="#782F1F" d="M1034.375,518.071c-3.858-2.723-8.952-2.938-13.021-0.554c-0.296,0.174-5.155,2.989-13.906,7.615
		c1.999-45.276,6.901-170.991,2.086-219.119c-5.618-56.17-0.012-187.348,0.047-188.667c0.278-6.413-4.527-11.912-10.92-12.493
		c-46.528-4.224-74.401-0.689-82.817,10.527c-1.326,1.765-2.136,3.86-2.351,6.055c-0.36,3.713-8.729,91.368-2.797,129.91
		c0.076,0.497,0.146,0.998,0.219,1.497c-14.626-2.328-27.912-0.089-38.108,3.187c2.923-33.323,9.148-97.964,15.208-120.176
		c4.343-15.92,0.008-26.431-4.39-32.447c-10.658-14.574-30.443-15.805-32.666-15.899c-0.869-0.027-1.737,0.022-2.59,0.172
		c-21.902,3.866-58.97,19.215-58.97,52.223c0,14.089-6.632,48.457-13.815,81.332c-3.15-20.238-6.538-38.852-9.163-45.409
		c-6.175-15.45-25.387-18.843-38.366-19.306c1.041-9.141,1.729-17.945,1.729-25.271c0-9.912-4.214-18.606-12.188-25.144
		c-20.118-16.489-59.385-15.01-71.423-12.604c-16.605,3.324-23.364,29.741-25.954,55.586c-18.502-0.157-34.888,10.396-46.628,20.934
		c-5.354-39.341-14.314-86.913-27.167-97.193c-18.436-14.754-57.514,2.197-73.462,10.173c-4.071,2.035-6.643,6.197-6.643,10.75
		v59.506l-21.791,2.179c1.737-94.361-10.12-97.317-18.082-99.306c-12.273-3.069-57.651-5.806-62.786-6.107
		c-6.541-0.383-12.726,5.036-12.726,11.998v90.122c-11.246-0.597-21.878-0.072-27.973,2.975
		c-4.762,2.381-10.974,5.498-12.364,44.673c-4.882-14.187-9.25-27.087-13.177-38.697c-26.619-78.691-34.651-102.44-64.275-102.44
		c-33.038,0-61.595,25.048-62.794,26.114c-3.502,3.112-4.875,7.976-3.519,12.461l34.515,114.169
		c-16.937,2.405-31.272,8.728-33.817,9.904c-5.084,2.346-7.876,7.896-6.726,13.377l60.047,286.591
		c-4.642-2.388-7.221-3.787-7.45-3.914c-8.761-4.824-19.486,2.989-17.593,12.811c0,0,117.472,608.977,117.689,610.101
		c1.377,7.138,8.874,11.453,15.736,9.083c2.596-0.902,263.432-88.949,577.221,0.203c6.358,1.807,13.737-2.266,15.091-9.284
		l117.689-610.102C1040.13,525.526,1038.229,520.798,1034.375,518.071z M920.872,886.087c0,0-6.577,42.938-6.608,43.141
		c-1.051,6.867-6.462,9.966-11.873,9.875c-6.598-0.111-13.197-4.965-11.892-13.513c0,0,6.585-42.99,6.608-43.141
		C899.442,867.205,923.251,870.503,920.872,886.087z M969.071,571.534c0,0-39.156,255.535-39.297,256.456
		c-1.049,6.846-6.461,9.952-11.873,9.87c-6.602-0.099-13.205-4.939-11.892-13.511c0,0,28.815-188.045,37.096-242.087
		c9.269-3.914,17.973-7.74,26.003-11.399C969.083,571.093,969.107,571.299,969.071,571.534z"/>
	<path fill="#ED564C" d="M793.35,1055.851c53.12,21.338,89.258,47.795,107.77,63.394l109.686-568.624
		c-10.637,5.518-24.736,12.514-41.706,20.245c0.002-0.001,0.005-0.002,0.007-0.003c-0.024,0.229,0,0.436-0.036,0.671
		c0,0-39.156,255.535-39.297,256.456c-1.049,6.846-6.461,9.952-11.873,9.87c-6.602-0.099-13.205-4.939-11.892-13.511
		c0,0,28.815-188.045,37.096-242.087c0.04-0.017,0.078-0.034,0.118-0.051c-77.435,32.708-196.097,71.637-322.415,71.637
		c-103.483,0-206.32-26.113-302.477-62.93c-41.178-15.767-74.004-31.02-94.234-41.014l109.92,569.825
		c2.063-1.675,4.148-3.321,6.25-4.946c81.145-62.691,185.62-92.935,287.461-91.493c10.392,0.148,10.032,16.162-0.112,16.026
		c-2.333-0.031-4.565-0.047-6.809-0.047c-117.662,0-203.791,43.139-250.341,73.965c50.804-11.926,137.844-27.493,246.165-27.493
		c75.571,0,161.482,7.625,252.612,29.308c-19.479-13.763-46.936-30.296-81.874-44.33
		C777.646,1066.815,783.762,1051.999,793.35,1055.851z M890.499,925.59c0,0,6.585-42.99,6.608-43.141
		c2.335-15.244,26.144-11.945,23.765,3.638c0,0-6.577,42.938-6.608,43.141c-1.051,6.867-6.462,9.966-11.873,9.875
		C895.793,938.992,889.194,934.138,890.499,925.59z M460.55,849.203c-20.711,0-37.5-16.79-37.5-37.501
		c0-20.711,16.789-37.501,37.5-37.501c20.711,0,37.5,16.79,37.5,37.501C498.05,832.413,481.261,849.203,460.55,849.203z
		 M620.807,887.824c-24.301,0-44.071-19.77-44.071-44.071c0-15.556,24.023-15.459,24.039,0c0.012,25.993,40.059,25.441,40.064-0.003
		c0.004-15.557,24.042-15.456,24.039,0.011C664.874,868.059,645.105,887.824,620.807,887.824z M682.199,1036.952
		c-2.293,6.883-9.551,5.117-15.156,4.566c-5.109-0.502-10.226-0.922-15.35-1.254c-5.168-0.335-7.357-4.491-7.028-8.484
		c0.329-3.993,3.175-7.823,8.078-7.505c7.662,0.497,15.39,1.185,22.965,2.045C680.865,1026.908,683.811,1032.114,682.199,1036.952z
		 M781.065,849.203c-20.711,0-37.5-16.79-37.5-37.501c0-20.711,16.789-37.501,37.5-37.501s37.5,16.79,37.5,37.501
		C818.565,832.413,801.776,849.203,781.065,849.203z"/>
	<path fill="#E6B960" d="M928.948,344.201c3.364,25.167-10.026,131.453-26.186,228.018c-15.589,5.971-32.362,11.961-50.121,17.704
		l31.919-231.404C900.554,351.127,919.421,344.685,928.948,344.201z M943.866,459.494c-5.228,39.916-11.445,79.84-15.064,102.346
		c21.212-8.792,39.469-17.179,54.012-24.244c1.045-22.211,8.035-176.864,2.798-229.189c-4.844-48.449-1.78-146.554-0.513-180.45
		c-20.658-1.184-40.244-0.493-48.214,1.727c-1.772,20.377-7.074,87.842-2.434,118.004c4.271,27.771,3.993,58.068,3.467,73.382
		c0.98,0.204,1.969,0.397,2.875,0.698c11.252,3.75,14.034,16.098,11.898,52.847C951.48,395.479,948.51,424.037,943.866,459.494z
		 M708.945,235.257c-11.374-1.123-28.507,4.21-42.623,12.352v380.454c14.268-1.066,28.399-2.596,42.334-4.519
		C709.748,475.644,710.691,255.295,708.945,235.257z M761.351,291.217c-0.324-0.865-0.587-1.759-0.705-2.708
		c-4.715-37.693-12.958-94.803-16.542-103.755c-1.266-2.163-9.89-4.209-19.371-4.263c-2.194,13.792-4.547,26.001-5.817,32.345
		c6.25,3.155,10.765,8.467,13.133,15.574c2.308,6.929,2.533,138.656,0.674,391.407c23.606-4.052,46.516-9.133,68.435-14.85
		c-3.416-21.713-14.825-93.842-22.053-134.822C772.049,430.154,764.202,329.709,761.351,291.217z M783.456,361.021
		c-0.031,0.554-0.122,1.089-0.258,1.604c3.467,39.587,7.749,82.399,11.691,104.733c7.074,40.104,18.117,109.813,21.829,133.402
		c3.557-0.997,7.086-2.006,10.582-3.03l34.329-248.891c0.54-3.928,2.985-7.336,6.53-9.108c7.675-3.839,27.242-13.037,45.644-17.241
		c0.349-9.128,0.704-26.113-0.391-44.529c-25.031-7.281-46.127,6.172-50.684,8.96l-4.311,37.079
		c-1.197,10.318-17.098,8.319-15.916-1.851c1.846-15.875,3.395-31.673,4.629-47.602c0.356-4.583,8.842-112.565,17.693-145.021
		c2.298-8.409-3.429-20.196-13.654-17.876c-6.951,1.577-37.73,9.63-37.73,28.252c0,24.883-16.083,95.45-24.395,130.256
		C788.213,283.206,784.714,338.382,783.456,361.021z M420.276,123.801c-0.366-14.674,0.094-30.825-3.794-45.118
		c-8.902-1.34-26.51-2.807-41.509-3.848v79.868c5.188,0.776,9.81,1.583,13.271,2.231c5.452,1.023,9.496,5.642,9.789,11.182
		l8.653,164.425c2.822,53.625,0.229,247.828,0.024,262.666c10.546,3.135,21.349,6.163,32.373,9.038
		c2.092-24.105,10.678-129.228,8.17-204.459c-1.465-43.973,2.195-99.261,27.955-112.924c4.633-2.459,11.255-4.192,19.586-1.929
		c7.583-23.248,31.668-51.681,56.596-60.09c0.092-11.07-0.089-28.559-0.292-40.817c-0.001-0.066,0.016-0.126,0.016-0.191
		c-5.334-41.284-13.818-84.568-19.891-92.345c-4.744-2.502-23.291,2.113-40.865,9.887v49.643c5.845,0.243,10.839,4.693,11.472,10.7
		l5.769,54.809c1.624,15.434-22.284,17.919-23.906,2.515c-0.022-0.202-4.517-42.916-4.517-42.916l-42.42,4.242
		c-0.655,19.534-1.434,54.591,0.519,74.118c1.028,10.282-14.912,11.948-15.948,1.593
		C416.958,212.404,421.369,167.645,420.276,123.801z M336.526,176.089c-3.695,17.072-2.199,84.032,3.795,161.93
		c2.576,33.481-1.49,192.988-2.596,234.13c14.177,5.256,29.246,10.524,45.042,15.629c0.482-38.129,2.43-206.152-0.087-253.975
		l-8.148-154.831C358.749,176.521,343.506,175.352,336.526,176.089z M223.295,235.548c-11.076-2.856-26.48,0.71-36.874,4.179
		l61.37,292.907c0.136,0.651,29.094,15.204,47.725,22.94c-6.06-27.469-17.389-81.636-19.553-111.927
		C273.824,413.674,241.514,297.668,223.295,235.548z M652.456,116.802c-3.25,4.56-28.809,156.645-33.568,180.441
		c-8.852,44.267-19.534,114.967-23.89,144.527l21.64,188.004c0.04,0.349,25.634-0.098,25.645-0.371c0-0.005,0-388.54,0-388.54
		c0-4.079,2.07-7.878,5.493-10.092c5.306-3.433,26.795-16.655,47.073-20.215c1.967-9.668,10.895-54.93,10.895-79.308
		c0-1.96-0.411-4.11-3.392-6.554C691.499,115.793,663.619,115.147,652.456,116.802z M312.109,275.624
		c-0.322-0.569-0.605-1.17-0.836-1.806c-15.736-43.277-27.317-77.515-36.623-105.026c-22.609-66.834-29.653-86.103-41.504-86.103
		c-16.515,0-32.564,9.57-40.913,15.49l34.32,113.519c4.129,0.833,8.166,2.092,11.969,3.995c2.981,1.491,5.21,4.151,6.152,7.348
		c2.134,7.236,52.324,177.684,55.267,218.893c1.608,22.487,8.88,60.357,14.786,88.549c1.501-63.035,3.546-165.685,1.627-190.619
		C314.46,315.26,313.073,294.003,312.109,275.624z M505.41,618.881c0.815-30.884,2.415-97.463,2.415-144.361
		c0-0.723,0.127-1.41,0.306-2.078c-7.5-76.084-14.978-154.281-15.777-171.485c-3.702-1.396-6.928-1.381-9.636,0.061
		c-10.795,5.724-21.572,34.536-19.447,98.234c2.638,79.202-6.832,190.723-8.449,208.953
		C471.31,612.201,488.223,615.804,505.41,618.881z M516.319,298.558c0,15.832,22.204,237.474,31.276,326.666
		c14.836,1.786,29.785,3.109,44.765,3.86l-43.336-376.484C532.036,263.855,516.319,287.252,516.319,298.558z M574.771,204.422
		c-0.667,0.962-1.466,1.793-2.348,2.504l-1.373,26.792v0.001l16.984,147.552c4.674-29.474,10.187-62.399,15.142-87.17
		c6.989-34.95,16.491-90.54,21.511-120.434C600.321,168.72,575.029,204.05,574.771,204.422z"/>
	<path fill="#FFE873" d="M223.295,235.548c18.219,62.119,50.529,178.126,52.669,208.098c2.164,30.291,13.493,84.458,19.553,111.927
		c-18.631-7.736-47.589-22.289-47.725-22.94l-61.37-292.907C196.815,236.258,212.219,232.692,223.295,235.548z M382.767,587.779
		c0.482-38.129,2.43-206.152-0.087-253.975l-8.148-154.831c-15.783-2.451-31.026-3.621-38.006-2.884
		c-3.695,17.072-2.199,84.032,3.795,161.93c2.576,33.481-1.49,192.988-2.596,234.13
		C351.902,577.406,366.971,582.674,382.767,587.779z M852.641,589.924c17.759-5.744,34.532-11.734,50.121-17.704
		c16.159-96.565,29.549-202.851,26.186-228.018c-9.527,0.483-28.393,6.925-44.388,14.318L852.641,589.924z M943.866,459.494
		c-5.228,39.916-11.445,79.84-15.064,102.346c21.212-8.792,39.469-17.179,54.012-24.244c1.045-22.211,8.035-176.864,2.798-229.189
		c-4.844-48.449-1.78-146.554-0.513-180.45c-20.658-1.184-40.244-0.493-48.214,1.727c-1.772,20.377-7.074,87.842-2.434,118.004
		c4.271,27.771,3.993,58.068,3.467,73.382c0.98,0.204,1.969,0.397,2.875,0.698c11.252,3.75,14.034,16.098,11.898,52.847
		C951.48,395.479,948.51,424.037,943.866,459.494z M652.456,116.802c-3.25,4.56-28.809,156.645-33.568,180.441
		c-8.852,44.267-19.534,114.967-23.89,144.527l21.64,188.004c0.04,0.349,25.634-0.098,25.645-0.371c0-0.005,0-388.54,0-388.54
		c0-4.079,2.07-7.878,5.493-10.092c5.306-3.433,26.795-16.655,47.073-20.215c1.967-9.668,10.895-54.93,10.895-79.308
		c0-1.96-0.411-4.11-3.392-6.554C691.499,115.793,663.619,115.147,652.456,116.802z M666.322,247.608v380.454
		c14.268-1.066,28.399-2.596,42.334-4.519c1.092-147.899,2.035-368.249,0.289-388.287
		C697.571,234.134,680.439,239.466,666.322,247.608z M801.158,604.966c-3.416-21.713-14.825-93.842-22.053-134.822
		c-7.056-39.99-14.903-140.435-17.754-178.927c-0.324-0.865-0.587-1.759-0.705-2.708c-4.715-37.693-12.958-94.803-16.542-103.755
		c-1.266-2.163-9.89-4.209-19.371-4.263c-2.194,13.792-4.547,26.001-5.817,32.345c6.25,3.155,10.765,8.467,13.133,15.574
		c2.308,6.929,2.533,138.656,0.674,391.407C756.329,615.764,779.239,610.684,801.158,604.966z M516.319,298.558
		c0,15.832,22.204,237.474,31.276,326.666c14.836,1.786,29.785,3.109,44.765,3.86l-43.336-376.484
		C532.036,263.855,516.319,287.252,516.319,298.558z M505.41,618.881c0.815-30.884,2.415-97.463,2.415-144.361
		c0-0.723,0.127-1.41,0.306-2.078c-7.5-76.084-14.978-154.281-15.777-171.485c-3.702-1.396-6.928-1.381-9.636,0.061
		c-10.795,5.724-21.572,34.536-19.447,98.234c2.638,79.202-6.832,190.723-8.449,208.953
		C471.31,612.201,488.223,615.804,505.41,618.881z"/>
</g>
</svg>
